PathFileType	4	(X/Y/Z)	/Users/itak/Documents/Research/Walk-IL/dataset/trc/00489_00167.trc
DataRate	CameraRate	NumFrames	NumMarkers	Units	OrigDataRate	OrigDataStartFrame	OrigNumFrames
100.000000	100.000000	4	53	mm	100.000000	363	581
Frame#	Time	RPSI			LPSI			L3			STRN			T10			C7			CLAV			RBAK			LBAK			LSHO			LUPA			LAEL			LAOL			LWTS			LWPS			LFRA			LIFD			LHPS			LHTS			RSHO			RUPA			RAEL			RAOL			RWTS			RWPS			RFRA			RIFD			RHTS			RHPS			RBHD			LFHD			RFHD			LBHD			LHIP			RHIP			RASI			LASI			LKNE			LTHI			LANK			LTIP			LTOE			LMT1			LMT5			LHEE			RKNE			RTHI			RANK			RTIP			RTOE			RMT1			RMT5			RHEE			
		X1	Y1	Z1	X2	Y2	Z2	X3	Y3	Z3	X4	Y4	Z4	X5	Y5	Z5	X6	Y6	Z6	X7	Y7	Z7	X8	Y8	Z8	X9	Y9	Z9	X10	Y10	Z10	X11	Y11	Z11	X12	Y12	Z12	X13	Y13	Z13	X14	Y14	Z14	X15	Y15	Z15	X16	Y16	Z16	X17	Y17	Z17	X18	Y18	Z18	X19	Y19	Z19	X20	Y20	Z20	X21	Y21	Z21	X22	Y22	Z22	X23	Y23	Z23	X24	Y24	Z24	X25	Y25	Z25	X26	Y26	Z26	X27	Y27	Z27	X28	Y28	Z28	X29	Y29	Z29	X30	Y30	Z30	X31	Y31	Z31	X32	Y32	Z32	X33	Y33	Z33	X34	Y34	Z34	X35	Y35	Z35	X36	Y36	Z36	X37	Y37	Z37	X38	Y38	Z38	X39	Y39	Z39	X40	Y40	Z40	X41	Y41	Z41	X42	Y42	Z42	X43	Y43	Z43	X44	Y44	Z44	X45	Y45	Z45	X46	Y46	Z46	X47	Y47	Z47	X48	Y48	Z48	X49	Y49	Z49	X50	Y50	Z50	X51	Y51	Z51	X52	Y52	Z52	X53	Y53	Z53	

364	3.63	-183.9602661132812	942.1005859375	179.2838897705078	-248.0679321289062	927.2446899414062	53.12679290771484	-194.9768981933594	1031.498901367188	124.4309616088867	17.87591171264648	1233.197265625	-48.80808639526367	-211.3849334716797	1155.84765625	126.2584915161133	-165.2138214111328	1426.220703125	84.0167236328125	-23.21439361572266	1344.198486328125	-38.11655044555664	-149.6535186767578	1314.102661132812	201.7275543212891	-248.9349365234375	1367.615966796875	29.39411926269531	-219.3222808837891	1385.44775390625	-97.16264343261719	-284.2001953125	1260.099365234375	-158.3022613525391	-287.72802734375	1043.366943359375	-182.3582153320312	-304.4172973632812	1035.966552734375	-80.17254638671875	-196.6078796386719	836.9977416992188	-181.7063903808594	-268.4624633789062	823.0896606445312	-198.0043487548828	-276.7685241699219	954.5936889648438	-197.9855346679688	-209.8658599853516	672.0535888671875	-160.4547576904297	-265.1598510742188	743.9564208984375	-191.3113403320312	-193.2584075927734	746.6629028320312	-183.8943786621094	-11.72012138366699	1409.905517578125	166.6439361572266	22.05209922790527	1356.953979492188	241.0314636230469	79.00358581542969	1083.812866210938	320.1896667480469	15.37099170684814	1059.0888671875	315.6618347167969	160.0328979492188	877.7232055664062	241.8413543701172	142.8271179199219	867.9105224609375	327.5714721679688	94.41622924804688	1027.210571289062	331.4029541015625	176.9434661865234	723.3286743164062	254.8781280517578	185.6357727050781	782.5604858398438	246.8617248535156	161.1514739990234	780.3325805664062	320.1098937988281	-45.48624420166016	1637.54052734375	60.63843154907227	-135.3999176025391	1632.725952148438	-125.6274642944336	-18.39399147033691	1658.165283203125	-72.8277587890625	-211.3380889892578	1606.387084960938	4.507625102996826	-163.4307556152344	827.7850341796875	-111.0206680297852	-17.69906044006348	852.5294799804688	262.8326416015625	49.78096008300781	886.4556274414062	154.7310333251953	-48.65944671630859	877.1064453125	-79.24813079833984	-5.285303592681885	432.7122802734375	-113.8781509399414	-49.15161514282227	581.435546875	-138.4856262207031	-6.222083568572998	34.60610198974609	3.398037433624268	-1.84514057636261	277.1124267578125	-98.60076904296875	179.0991668701172	42.13667678833008	-155.7152862548828	162.9355163574219	47.38963317871094	-73.671875	66.64901733398438	45.00376892089844	-130.1882171630859	25.19031715393066	42.79602432250977	74.31612396240234	-5.896500587463379	472.7869567871094	299.1978454589844	26.09866905212402	723.1790161132812	269.0661926269531	-329.7203674316406	192.97216796875	436.5154418945312	-86.46263885498047	362.9389343261719	353.3894958496094	-245.9017333984375	28.41660308837891	361.0588073730469	-279.0419311523438	73.31533050537109	331.68115234375	-281.5127258300781	70.11937713623047	439.3786315917969	-366.2071838378906	251.7605590820312	398.5307006835938	
365	3.64	-177.0198059082031	942.1500854492188	175.2120361328125	-242.4915313720703	928.3975830078125	49.63098526000977	-188.4569549560547	1032.3564453125	119.9547119140625	22.0606746673584	1234.035888671875	-55.81313705444336	-204.7031097412109	1156.76513671875	122.0537796020508	-159.0110015869141	1427.188110351562	79.6171875	-18.84797286987305	1345.046875	-44.55637741088867	-141.8568725585938	1315.010131835938	197.0231628417969	-243.6470184326172	1368.569580078125	26.22941970825195	-215.8677215576172	1386.319213867188	-100.5794067382812	-281.2088317871094	1261.063110351562	-161.2938995361328	-283.679931640625	1044.416748046875	-187.1180725097656	-299.7009887695312	1035.862060546875	-84.982177734375	-188.4335479736328	840.0827026367188	-189.2819213867188	-260.0235900878906	824.8046875	-205.2757110595703	-271.2459411621094	955.9581909179688	-203.6090698242188	-197.2285003662109	675.2249755859375	-170.5771636962891	-254.8590698242188	745.7466430664062	-199.6903839111328	-182.54296875	750.450927734375	-193.0439453125	-4.239802360534668	1410.686645507812	160.0344085693359	30.60188674926758	1357.416259765625	233.7948150634766	86.99386596679688	1083.787475585938	311.2599487304688	22.84815788269043	1060.229125976562	307.8056640625	162.2919616699219	874.4186401367188	234.5589447021484	146.4519958496094	866.58544921875	320.6799926757812	101.4748001098633	1027.131713867188	322.9015502929688	173.3311004638672	719.586669921875	249.85546875	184.0794067382812	778.27001953125	240.6127624511719	161.1477966308594	778.20263671875	314.35205078125	-39.45923614501953	1638.542236328125	54.10705947875977	-131.1163177490234	1633.356201171875	-131.292236328125	-13.5805082321167	1658.6015625	-79.69345855712891	-205.9008178710938	1607.725341796875	-0.3699187636375427	-159.7714385986328	828.4445190429688	-115.0608444213867	-9.243371963500977	853.0960083007812	256.3938293457031	57.07354736328125	887.7706298828125	147.7562866210938	-44.55582809448242	877.600341796875	-84.86119842529297	-3.99022650718689	432.2784118652344	-116.0881042480469	-47.1733512878418	581.115966796875	-141.7136077880859	-6.112478256225586	34.51938247680664	3.491058111190796	-0.9905203580856323	276.5986938476562	-100.099609375	178.9407501220703	41.76810073852539	-155.9911651611328	162.9016265869141	47.37529754638672	-73.79749298095703	66.53162384033203	44.81106948852539	-130.3610534667969	25.2745418548584	42.88275909423828	74.30970001220703	12.00474548339844	473.8556823730469	292.494384765625	37.4012336730957	724.75146484375	262.0565185546875	-310.0827331542969	199.2563629150391	438.6402587890625	-66.88559722900391	363.5661010742188	348.4559936523438	-238.6663208007812	26.639892578125	359.8269348144531	-269.3132934570312	76.45513916015625	331.8785705566406	-268.191650390625	73.67756652832031	439.6164245605469	-345.7054443359375	259.2605285644531	401.9908447265625	
366	3.65	-170.1020660400391	942.2802124023438	171.3607177734375	-237.0561981201172	929.5142211914062	46.47413635253906	-182.094482421875	1033.22412109375	115.7302093505859	26.08147430419922	1234.834228515625	-62.63990783691406	-198.1616516113281	1157.713256835938	118.0030899047852	-152.8853149414062	1428.153442382812	75.32292175292969	-14.61837196350098	1345.858642578125	-50.83860015869141	-134.1912078857422	1315.915771484375	192.4196929931641	-238.4423980712891	1369.558471679688	23.17812919616699	-212.5308837890625	1387.190185546875	-103.8174514770508	-278.336669921875	1262.044921875	-164.1387176513672	-279.7733459472656	1045.541137695312	-191.7760467529297	-295.0719604492188	1035.792846679688	-89.69780731201172	-180.3777770996094	843.4644775390625	-196.9782562255859	-251.670654296875	826.7653198242188	-212.6381072998047	-265.8650817871094	957.4620971679688	-209.1808319091797	-184.5367584228516	678.7492065429688	-181.2202453613281	-244.5671234130859	747.8594970703125	-208.3684387207031	-171.9589233398438	754.5700073242188	-202.4719696044922	3.123117923736572	1411.406982421875	153.5274047851562	39.03268432617188	1357.81201171875	226.6371765136719	95.03746795654297	1083.772216796875	302.3949279785156	30.43212890625	1061.329223632812	300.1255798339844	164.6041412353516	871.3568725585938	227.16064453125	150.5104827880859	865.4877319335938	313.6669616699219	108.687126159668	1027.098999023438	314.4074096679688	169.9378509521484	716.3209838867188	244.8787994384766	182.6563415527344	774.373291015625	234.3135070800781	161.6261749267578	776.4442749023438	308.5415344238281	-33.48706817626953	1639.48828125	47.72689819335938	-126.9193115234375	1633.985717773438	-136.76806640625	-8.856790542602539	1659.012817382812	-86.39501190185547	-200.5118560791016	1609.037109375	-5.060067653656006	-156.4419555664062	829.0909423828125	-118.8789978027344	-0.8786723613739014	853.6068725585938	249.9272003173828	64.21831512451172	889.0418090820312	140.783447265625	-40.74687957763672	878.1517333984375	-90.34269714355469	-2.866822242736816	431.8711547851562	-118.1943435668945	-45.33987045288086	580.84814453125	-144.8699493408203	-5.996461391448975	34.4128532409668	3.559989452362061	-0.2099975496530533	276.1327209472656	-101.5440826416016	178.7784271240234	41.51355743408203	-156.2183837890625	162.8439331054688	47.41083526611328	-73.93235015869141	66.38992309570312	44.63035202026367	-130.5330963134766	25.3405933380127	42.98293685913086	74.28862762451172	29.66526222229004	474.9947814941406	285.1718139648438	48.49696350097656	726.2803955078125	254.8530426025391	-290.0515441894531	204.6256256103516	440.1486206054688	-47.36883163452148	364.2296447753906	342.8629150390625	-229.49267578125	25.2508716583252	358.5687561035156	-257.798583984375	79.58686828613281	331.8748779296875	-253.6178741455078	77.00634765625	439.5416564941406	-324.9719848632812	265.7104187011719	404.7138366699219	
367	3.66	-163.1585540771484	942.507080078125	167.6974639892578	-231.7492828369141	930.5537109375	43.64124298095703	-175.8638000488281	1034.10986328125	111.7788848876953	29.93809700012207	1235.597534179688	-69.30091094970703	-191.7505950927734	1158.692993164062	114.1375579833984	-146.8385772705078	1429.116943359375	71.1278076171875	-10.51993560791016	1346.641967773438	-56.9670295715332	-126.6459732055664	1316.830078125	187.9169158935547	-233.3142700195312	1370.577880859375	20.22508430480957	-209.2806396484375	1388.080200195312	-106.9114990234375	-275.5624084472656	1263.065795898438	-166.8728942871094	-276.0009460449219	1046.749755859375	-196.3181304931641	-290.5218200683594	1035.793212890625	-94.30296325683594	-172.4782867431641	847.1453247070312	-204.7488250732422	-243.4473266601562	828.9804077148438	-220.0341186523438	-260.63134765625	959.1133422851562	-214.6804504394531	-171.8769836425781	682.6403198242188	-192.3198852539062	-234.3426055908203	750.313720703125	-217.2849731445312	-161.6128082275391	759.0059204101562	-212.1102142333984	10.37010383605957	1412.081420898438	147.10888671875	47.33892059326172	1358.1728515625	219.5542907714844	103.0654296875	1083.773559570312	293.6368103027344	38.06280899047852	1062.380737304688	292.6339721679688	167.0030212402344	868.5916748046875	219.6439971923828	154.9775848388672	864.6095581054688	306.5111083984375	115.9910430908203	1027.107666015625	305.9474792480469	166.9259643554688	713.5639038085938	239.8935852050781	181.4821929931641	770.917236328125	227.9369201660156	162.6464080810547	775.0494995117188	302.62646484375	-27.57676124572754	1640.375244140625	41.50130844116211	-122.8036346435547	1634.616455078125	-142.0567474365234	-4.218487739562988	1659.406372070312	-92.92311859130859	-195.1734161376953	1610.310913085938	-9.571013450622559	-153.4399261474609	829.6885375976562	-122.4981460571289	7.517396926879883	854.1087036132812	243.3845520019531	71.22972106933594	890.2702026367188	133.7391662597656	-37.245849609375	878.7543334960938	-95.75652313232422	-1.862125992774963	431.4754028320312	-120.1989364624023	-43.64627838134766	580.5872192382812	-147.9130706787109	-5.888072967529297	34.31077194213867	3.599478960037231	0.4975769519805908	275.7068176269531	-102.9048843383789	178.6377716064453	41.33577728271484	-156.3990020751953	162.7810211181641	47.47955322265625	-74.07210540771484	66.24079895019531	44.46564102172852	-130.6922149658203	25.39450073242188	43.09223937988281	74.25883483886719	47.00231170654297	476.2340698242188	277.275390625	59.42766571044922	727.7682495117188	247.4386749267578	-269.7450866699219	209.0305480957031	441.0381774902344	-28.02866172790527	365.0260925292969	336.6858520507812	-217.9402008056641	24.37600517272949	357.209716796875	-244.3453369140625	82.57638549804688	331.5884094238281	-237.5771636962891	80.017578125	439.0654602050781	-304.2293701171875	271.01611328125	406.7247924804688	
